<mxfile host="app.diagrams.net" modified="2024-05-26T18:54:25.696Z" agent="Mozilla/5.0 (Windows NT 10.0; Win64; x64) AppleWebKit/537.36 (KHTML, like Gecko) Chrome/125.0.0.0 Safari/537.36" version="24.4.8" etag="wRtjlITar6LLCnDsD7-t" type="github">
  <diagram name="PÃ¡gina-1" id="Ixois5FEq10oUcDNjfHy">
    <mxGraphModel>
      <root>
        <mxCell id="0" />
        <mxCell id="1" parent="0" />
      </root>
    </mxGraphModel>
  </diagram>
</mxfile>
